#!OML:ASF F:\VICON\USERDATA\Patient Classification 1\PLAYGROUND\JustinFriday\JustinFriday.ASF
:FULLY-SPECIFIED
:DEGREES
1309
root 11.9785 30.1174 45.3225 -165.431 16.451 -164.252
lowerback 33.7669 7.99125 -13.858
upperback 7.58157 8.63303 9.71485
thorax -12.0775 5.294 14.3938
lowerneck 24.0732 -12.9948 -0.190837
upperneck -10.5773 -17.8338 -2.55584
head -7.24837 -8.0546 1.45446
rclavicle -6.95746e-016 -3.1408e-014
rhumerus 55.3551 -44.0473 -53.062
rradius 117.369
rwrist -4.14131
rhand -46.6819 -21.5791
rfingers 7.12502
rthumb -19.4014 -50.6312
lclavicle -6.95746e-016 -3.1408e-014
lhumerus 101.491 16.1764 60.1973
lradius 26.5989
lwrist 5.8269
lhand -39.7038 -8.49944
lfingers 7.12502
lthumb -12.6822 21.0955
rfemur -48.3505 -2.7609 36.1483
rtibia 63.8592
rfoot -35.7782 -4.86516
rtoes -8.29301
lfemur -49.0346 15.2116 -12.7142
ltibia 71.501
lfoot -40.9149 3.59052
ltoes 12.5267
1310
root 11.9553 30.1172 45.3535 -166.004 17.5911 -164.253
lowerback 33.7707 8.5461 -14.4193
upperback 7.73375 9.16348 9.74608
thorax -12.1433 5.55169 14.4595
lowerneck 23.447 -12.748 -0.258982
upperneck -8.59133 -17.3703 -2.86674
head -6.51683 -7.88287 1.1812
rclavicle -1.04561e-013 -9.83984e-014
rhumerus 56.4459 -43.0291 -54.1142
rradius 117.035
rwrist -3.81839
rhand -45.5883 -21.7374
rfingers 7.12502
rthumb -18.3496 -50.8919
lclavicle -1.04561e-013 -9.83984e-014
lhumerus 100.754 15.9812 59.7507
lradius 26.7698
lwrist 6.80271
lhand -39.9855 -8.27577
lfingers 7.12502
lthumb -12.9538 21.3021
rfemur -47.9557 -2.04758 35.8295
rtibia 64.3624
rfoot -35.3143 -4.5576
rtoes -8.01154
lfemur -48.0523 16.0208 -12.7769
ltibia 71.3375
lfoot -41.2681 3.81204
ltoes 11.8724
1311
root 11.9095 30.1027 45.3792 -166.29 17.6834 -164.473
lowerback 33.7414 8.42434 -14.1041
upperback 7.68535 9.10483 9.6913
thorax -12.1232 5.51291 14.2545
lowerneck 22.8262 -12.4609 -0.347597
upperneck -6.6549 -16.8584 -3.23145
head -5.81542 -7.669 0.901283
rclavicle 3.46879e-014 -5.83433e-014
rhumerus 57.1228 -41.9615 -54.8242
rradius 116.896
rwrist -3.63094
rhand -44.1497 -22.3984
rfingers 7.12502
rthumb -16.9653 -51.6775
lclavicle 3.46879e-014 -5.83433e-014
lhumerus 100.252 15.4769 60.191
lradius 27.402
lwrist 7.00167
lhand -38.5049 -5.5041
lfingers 7.12502
lthumb -11.5262 24.159
rfemur -48.2689 -2.33473 35.4469
rtibia 65.0071
rfoot -34.8173 -4.49785
rtoes -8.49534
lfemur -47.8597 15.6163 -13.108
ltibia 71.2444
lfoot -41.5285 4.07226
ltoes 11.6616
1312
root 11.879 30.0901 45.4057 -166.568 18.3973 -164.578
lowerback 33.5092 8.65492 -14.2607
upperback 7.73909 9.36242 9.67135
thorax -12.0718 5.62707 14.202
lowerneck 22.6607 -12.3196 -0.841265
upperneck -4.92962 -16.5998 -3.10611
head -5.17925 -7.58647 0.888512
rclavicle -5.02428e-014 -2.88238e-015
rhumerus 57.6028 -40.8113 -55.3834
rradius 116.856
rwrist -3.53817
rhand -42.8464 -23.0769
rfingers 7.12502
rthumb -15.7104 -52.4592
lclavicle -5.02428e-014 -2.88238e-015
lhumerus 99.5871 14.9949 60.4623
lradius 27.8257
lwrist 7.31026
lhand -38.3792 -4.9339
lfingers 7.12502
lthumb -11.4049 24.7359
rfemur -48.3424 -1.98302 35.1002
rtibia 65.6577
rfoot -34.1188 -4.86656
rtoes -9.4785
lfemur -47.5179 15.9294 -13.3672
ltibia 71.1747
lfoot -41.7388 4.42658
ltoes 11.1253
1313
root 11.8594 30.0783 45.4346 -166.728 18.9697 -164.62
lowerback 33.1213 8.83492 -14.4103
upperback 7.77552 9.58072 9.69703
thorax -11.9819 5.72479 14.2362
lowerneck 22.1794 -11.9278 -0.879007
upperneck -3.30038 -15.9454 -3.51862
head -4.61982 -7.27412 0.610108
rclavicle 4.3832e-014 5.85421e-014
rhumerus 57.9943 -39.6398 -55.9311
rradius 116.903
rwrist -3.43504
rhand -41.89 -23.8562
rfingers 7.12502
rthumb -14.7892 -53.3085
lclavicle 4.3832e-014 5.85421e-014
lhumerus 98.7836 14.3768 60.8778
lradius 28.389
lwrist 7.42637
lhand -38.3212 -4.02161
lfingers 7.12502
lthumb -11.3491 25.6513
rfemur -48.4574 -1.46101 34.8956
rtibia 66.4271
rfoot -33.4572 -5.61112
rtoes -10.4172
lfemur -47.3577 16.394 -13.4847
ltibia 71.1504
lfoot -41.7589 4.61067
ltoes 10.7791
1314
root 11.837 30.085 45.4656 -167.055 19.2324 -164.747
lowerback 32.952 8.88343 -14.4071
upperback 7.74511 9.66122 9.7389
thorax -11.9932 5.76496 14.2573
lowerneck 22.169 -11.6527 -1.30257
upperneck -1.54033 -15.4742 -3.57909
head -4.02996 -7.05365 0.530551
rclavicle 9.7816e-015 -1.16305e-014
rhumerus 58.2935 -38.3979 -56.4786
rradius 116.959
rwrist -3.10901
rhand -40.7382 -24.7653
rfingers 7.12502
rthumb -13.6794 -54.2957
lclavicle 9.7816e-015 -1.16305e-014
lhumerus 97.7773 13.5772 61.5818
lradius 29.5047
lwrist 7.26697
lhand -38.166 -3.41885
lfingers 7.12502
lthumb -11.1994 26.2622
rfemur -48.3875 -1.26388 34.6707
rtibia 67.2153
rfoot -33.0063 -6.7614
rtoes -8.80959
lfemur -47.0466 16.5898 -13.6033
ltibia 71.0756
lfoot -41.6827 4.47553
ltoes 11.1065
1315
root 11.8066 30.0748 45.494 -167.621 19.2917 -165.166
lowerback 33.0782 8.80828 -14.2981
upperback 7.7172 9.56683 9.63428
thorax -12.0004 5.71378 14.111
lowerneck 21.9375 -11.4485 -1.69283
upperneck 0.484621 -15.0478 -3.58536
head -3.32907 -6.86511 0.452483
rclavicle -2.72335e-014 1.51325e-014
rhumerus 58.7635 -37.0992 -57.3121
rradius 116.925
rwrist -2.54672
rhand -39.114 -25.096
rfingers 7.12502
rthumb -12.1136 -54.7253
lclavicle -2.72335e-014 1.51325e-014
lhumerus 96.8425 12.8051 62.5433
lradius 31.3299
lwrist 6.88554
lhand -37.9502 -3.89013
lfingers 7.12502
lthumb -10.9913 25.8021
rfemur -48.2985 -1.50876 34.1631
rtibia 68.156
rfoot -32.7578 -8.08836
rtoes -8.50192
lfemur -46.6923 16.3658 -14.0308
ltibia 71.0753
lfoot -41.5596 4.45414
ltoes 11.3658
1316
root 11.7852 30.0572 45.5275 -167.959 19.3536 -165.402
lowerback 32.984 8.70806 -14.107
upperback 7.73232 9.50235 9.55597
thorax -11.8839 5.66912 13.9581
lowerneck 20.9356 -11.2344 -1.77503
upperneck 3.08618 -14.5117 -3.96227
head -2.7126 -6.62519 0.244956
rclavicle 5.39203e-014 7.14134e-014
rhumerus 59.3591 -35.7912 -58.2677
rradius 116.85
rwrist -2.00066
rhand -37.6819 -24.7304
rfingers 7.12502
rthumb -10.7324 -54.4363
lclavicle 5.39203e-014 7.14134e-014
lhumerus 95.8803 12.0018 63.6985
lradius 33.2153
lwrist 6.29799
lhand -37.2419 -4.68549
lfingers 7.12502
lthumb -10.308 25.0419
rfemur -48.3313 -1.48227 33.8404
rtibia 69.1615
rfoot -32.5045 -9.41846
rtoes -8.65857
lfemur -46.5963 16.3257 -14.2672
ltibia 71.1323
lfoot -41.2687 4.30985
ltoes 11.6667
1317
root 11.7857 30.05 45.5647 -168.486 19.7353 -165.458
lowerback 32.9339 8.89352 -14.3024
upperback 7.86771 9.71627 9.64055
thorax -11.8221 5.7739 14.0583
lowerneck 20.3892 -10.9743 -1.99995
upperneck 4.98513 -13.9588 -4.19239
head -1.9467 -6.35439 0.05128
rclavicle -5.13858e-014 -3.81667e-014
rhumerus 59.966 -34.5022 -59.2195
rradius 116.775
rwrist -1.547
rhand -36.4541 -24.4459
rfingers 7.12502
rthumb -9.54793 -54.2096
lclavicle -5.13858e-014 -3.81667e-014
lhumerus 94.7996 11.0227 65.2965
lradius 35.0573
lwrist 5.29881
lhand -35.9295 -5.74887
lfingers 7.12502
lthumb -9.0418 24.0373
rfemur -47.8503 -0.866407 33.6963
rtibia 70.1489
rfoot -32.0395 -11.1184
rtoes -8.75026
lfemur -46.0901 16.951 -14.1375
ltibia 71.2093
lfoot -41.0839 3.67876
ltoes 10.0961
1318
root 11.7682 30.0428 45.597 -169.075 19.6557 -165.766
lowerback 33.0728 8.77622 -14.1224
upperback 7.91594 9.62168 9.59734
thorax -11.754 5.72276 13.9464
lowerneck 20.2305 -10.7334 -2.31909
upperneck 6.45249 -13.4859 -4.17876
head -1.38494 -6.11983 0.000552679
rclavicle -1.00386e-014 2.45499e-014
rhumerus 60.5627 -33.188 -60.2298
rradius 116.669
rwrist -1.32113
rhand -35.4365 -24.4115
rfingers 7.12502
rthumb -8.56606 -54.2177
lclavicle -1.00386e-014 2.45499e-014
lhumerus 93.5263 10.0098 66.9078
lradius 37.0593
lwrist 4.23909
lhand -34.1467 -6.61106
lfingers 7.12502
lthumb -7.32118 23.2423
rfemur -47.515 -0.94397 33.296
rtibia 71.1663
rfoot -31.2216 -12.8607
rtoes -9.40296
lfemur -45.7634 16.943 -14.3452
ltibia 71.32
lfoot -40.9915 3.15597
ltoes 10.5392
1319
root 11.7482 30.0295 45.6213 -169.503 19.6979 -165.956
lowerback 33.003 8.60951 -13.7613
upperback 7.97368 9.53493 9.4998
thorax -11.5663 5.66079 13.6891
lowerneck 22.3494 -10.7732 -3.85906
upperneck 6.61706 -13.7776 -2.77173
head -1.45247 -6.27732 0.795359
rclavicle -3.18055e-015 -5.00937e-014
rhumerus 61.1314 -31.8172 -61.2624
rradius 116.439
rwrist -1.02134
rhand -35.2063 -23.9356
rfingers 7.12502
rthumb -8.34384 -53.7508
lclavicle -3.18055e-015 -5.00937e-014
lhumerus 92.0702 8.9612 68.4401
lradius 39.2698
lwrist 3.18173
lhand -32.0682 -6.96318
lfingers 7.12502
lthumb -5.31458 22.9502
rfemur -47.2374 -0.957985 32.9083
rtibia 72.1998
rfoot -30.6331 -13.0408
rtoes -7.57825
lfemur -45.548 17.0002 -14.5238
ltibia 71.4797
lfoot -40.9087 2.88694
ltoes 11.8543
1320
root 11.7318 30.0114 45.6445 -169.867 19.8808 -166.114
lowerback 32.8019 8.47835 -13.4229
upperback 8.02816 9.48797 9.37866
thorax -11.3437 5.61406 13.4094
lowerneck 24.131 -10.6133 -5.10634
upperneck 6.71559 -13.7994 -1.57769
head -1.52932 -6.30747 1.46421
rclavicle 7.95139e-015 -3.1408e-014
rhumerus 61.5733 -30.4514 -62.1625
rradius 116.121
rwrist -0.569117
rhand -35.565 -23.199
rfingers 7.12502
rthumb -8.69008 -53.0002
lclavicle 7.95139e-015 -3.1408e-014
lhumerus 90.3686 7.94086 69.7677
lradius 41.7357
lwrist 2.27873
lhand -29.8512 -6.57406
lfingers 7.12502
lthumb -3.17372 23.3821
rfemur -46.9739 -0.804797 32.5469
rtibia 73.2652
rfoot -30.4077 -13.1478
rtoes -5.51106
lfemur -45.3873 17.2147 -14.6938
ltibia 71.6836
lfoot -40.7501 2.75918
ltoes 12.6122
1321
root 11.711 29.9917 45.6707 -170.235 19.7357 -166.351
lowerback 32.7415 8.20933 -12.9488
upperback 7.93716 9.27315 9.2405
thorax -11.2721 5.49535 13.1048
lowerneck 25.5872 -10.3674 -6.12093
upperneck 7.07865 -13.6443 -0.581649
head -1.49768 -6.25036 2.00488
rclavicle 1.68967e-015 -5.56597e-015
rhumerus 61.7787 -28.9891 -62.8567
rradius 115.796
rwrist -0.382316
rhand -35.6028 -22.821
rfingers 7.12502
rthumb -8.72647 -52.6206
lclavicle 1.68967e-015 -5.56597e-015
lhumerus 88.3447 7.14885 70.4583
lradius 44.4366
lwrist 1.99995
lhand -27.6944 -5.1903
lfingers 7.12502
lthumb -1.09075 24.7867
rfemur -46.772 -0.989176 32.2298
rtibia 74.2923
rfoot -29.797 -14.3328
rtoes -5.28139
lfemur -45.344 17.1048 -14.9269
ltibia 71.8907
lfoot -40.5726 2.59339
ltoes 12.9036
1322
root 11.6901 29.97 45.6978 -170.569 19.3428 -166.511
lowerback 32.7076 7.83377 -12.3314
upperback 7.80623 8.97408 9.14357
thorax -11.2293 5.33976 12.8069
lowerneck 27.2496 -10.1061 -6.78635
upperneck 6.9294 -13.4384 0.291319
head -1.37988 -6.14572 2.17916
rclavicle -4.47266e-015 1.80894e-014
rhumerus 61.9478 -27.4439 -63.5192
rradius 115.453
rwrist -0.217645
rhand -35.5404 -22.7029
rfingers 7.12502
rthumb -8.66633 -52.505
lclavicle -4.47266e-015 1.80894e-014
lhumerus 86.3516 6.31497 71.0107
lradius 47.1564
lwrist 1.79123
lhand -25.7261 -2.76984
lfingers 7.12502
lthumb 0.810322 27.2084
rfemur -46.5105 -1.36045 32.0001
rtibia 75.226
rfoot -28.9547 -15.7071
rtoes -5.58229
lfemur -45.3484 16.7399 -15.0454
ltibia 72.0881
lfoot -40.3824 2.39765
ltoes 13.0818
1323
root 11.6749 29.9503 45.726 -170.983 18.9942 -166.759
lowerback 32.7262 7.52299 -11.8785
upperback 7.68828 8.69583 9.02899
thorax -11.2143 5.19705 12.5611
lowerneck 27.9736 -9.84427 -7.16737
upperneck 7.54599 -13.0843 0.461536
head -1.25161 -5.9497 2.27136
rclavicle 9.93923e-016 -2.14687e-014
rhumerus 62.0736 -26.0302 -64.1277
rradius 115.081
rwrist 0.112044
rhand -35.721 -22.6829
rfingers 7.12502
rthumb -8.84057 -52.4777
lclavicle 9.93923e-016 -2.14687e-014
lhumerus 84.4824 5.17905 71.8051
lradius 49.8935
lwrist 1.16904
lhand -24.0038 0.261173
lfingers 7.12502
lthumb 2.47366 30.2266
rfemur -46.1067 -1.66459 31.6067
rtibia 76.0738
rfoot -28.2397 -16.1599
rtoes -4.66089
lfemur -45.2678 16.4099 -15.2357
ltibia 72.2656
lfoot -40.2459 2.17552
ltoes 13.2437
